<svg xmlns="http://www.w3.org/2000/svg" width="609" height="609" viewBox="0 0 609 609">
  <g fill="none" fill-rule="evenodd" transform="translate(8)">
    <path fill="#FFFFFF" fill-rule="nonzero" d="M315.96832 600.029706C317.298408 599.945663 318.627181 599.852697 319.954577 599.750826L319.878057 598.753757C318.555145 598.855285 317.230859 598.947937 315.90526 599.031696L315.96832 600.029706zM323.991552 599.413179C325.324965 599.292448 326.656881 599.162713 327.987235 599.023994L327.883525 598.029387C326.557679 598.167635 325.230275 598.296931 323.901377 598.417253L323.991552 599.413179zM331.955618 598.583023C333.281581 598.426581 334.605883 598.261196 335.928458 598.086888L335.797794 597.095462C334.479712 597.269177 333.159908 597.434 331.838447 597.589911L331.955618 598.583023zM339.88618 597.537915C341.211645 597.344873 342.53526 597.14285 343.856957 596.931868L343.699324 595.94437C342.382125 596.154634 341.063015 596.35597 339.74206 596.548354L339.88618 597.537915zM347.807929 596.273512C349.122348 596.045262 350.434751 595.808129 351.745072 595.562139L351.560562 594.579308C350.254708 594.82446 348.946778 595.060785 347.636839 595.288257L347.807929 596.273512zM355.68823 594.79388C356.998107 594.529345 358.305779 594.255935 359.611176 593.973674L359.399835 592.996262C358.098892 593.277559 356.795681 593.550037 355.490273 593.813669L355.68823 594.79388zM363.523229 593.099736C364.826513 592.799212 366.1274 592.489841 367.42582 592.171652L367.187804 591.200391C365.893817 591.517494 364.597371 591.825809 363.298536 592.125306L363.523229 593.099736zM371.309005 591.191854C372.603661 590.855758 373.895732 590.510866 375.185144 590.157209L374.920635 589.192826C373.635626 589.545275 372.347967 589.888989 371.057731 590.223938L371.309005 591.191854zM379.041566 589.071067C380.325585 588.699933 381.60683 588.320077 382.885228 587.931534L382.594432 586.974748C381.320398 587.361966 380.043527 587.740524 378.763891 588.110392L379.041566 589.071067zM386.716851 586.738263C387.988249 586.332743 389.256689 585.918599 390.522095 585.495865L390.205239 584.547392C388.94415 584.968683 387.680038 585.381414 386.412979 585.78555L386.716851 586.738263zM394.30408 584.203698C395.567978 583.762228 396.828702 583.312155 398.086177 582.853517L397.743528 581.914054C396.490339 582.371128 395.233913 582.819667 393.974325 583.259632L394.30408 584.203698zM401.852681 581.45046C403.099851 580.976128 404.343672 580.493334 405.584068 580.00212L405.215874 579.072371C403.979702 579.561912 402.740117 580.043061 401.497196 580.515778L401.852681 581.45046zM409.305435 578.498915C410.540602 577.990143 411.772215 577.472983 413.000197 576.947477L412.606767 576.028122C411.382961 576.551841 410.155538 577.067242 408.924574 577.574283L409.305435 578.498915zM416.684685 575.340851C417.905544 574.798536 419.122651 574.247934 420.335926 573.689087L419.917564 572.780807C418.70841 573.337755 417.495438 573.886487 416.278728 574.426958L416.684685 575.340851zM423.935538 572.001528C425.140163 571.426832 426.340844 570.843969 427.537504 570.252985L427.094699 569.356367C425.902099 569.945346 424.705491 570.526232 423.504954 571.098978L423.935538 572.001528zM431.105572 568.460707C432.297513 567.851845 433.485289 567.234884 434.668821 566.609872L434.201847 565.725602C433.022324 566.348496 431.838572 566.963367 430.65067 567.570165L431.105572 568.460707zM438.19034 564.71961C439.361488 564.080724 440.5283 563.433913 441.690697 562.779225L441.199958 561.907918C440.041492 562.560391 438.878628 563.205015 437.711443 563.841739L438.19034 564.71961zM445.18532 560.779522C446.338882 560.108966 447.487909 559.430607 448.632322 558.744499L448.118123 557.886828C446.977576 558.570619 445.832431 559.246686 444.682767 559.914976L445.18532 560.779522zM452.062249 556.656419C453.195941 555.955672 454.324912 555.247273 455.449083 554.531274L454.911879 553.687822C453.791499 554.401405 452.666338 555.107415 451.536471 555.805798L452.062249 556.656419zM458.817745 552.35357C459.934191 551.621082 461.045703 550.881049 462.152202 550.13353L461.592404 549.304901C460.489633 550.049902 459.381866 550.787441 458.269182 551.517461L458.817745 552.35357zM465.471226 547.858386C466.567689 547.095806 467.65902 546.325823 468.745141 545.548496L468.163147 544.735303C467.08068 545.510014 465.993023 546.277406 464.90025 547.037419L465.471226 547.858386zM471.995605 543.188797C473.069631 542.397966 474.138346 541.5999 475.201673 540.794661L474.597965 539.997456C473.538212 540.799988 472.47309 541.59537 471.402676 542.383542L471.995605 543.188797zM478.387465 538.348105C479.440867 537.527774 480.488757 536.700347 481.531058 535.865888L480.906081 535.085245C479.867281 535.916901 478.822912 536.741548 477.773049 537.559123L478.387465 538.348105zM484.64339 533.339611C485.673513 532.491896 486.697944 531.637255 487.716609 530.775753L487.070861 530.012202C486.055616 530.870812 485.034624 531.722583 484.00796 532.567452L484.64339 533.339611zM490.78088 528.148434C491.788732 527.272382 492.790695 526.389554 493.786696 525.500017L493.120575 524.754173C492.127917 525.640725 491.129317 526.52059 490.124847 527.393702L490.78088 528.148434zM496.754182 522.813686C497.73716 521.911756 498.714079 521.003229 499.684866 520.088175L498.998956 519.360489C498.031426 520.272473 497.057785 521.177951 496.078104 522.076856L496.754182 522.813686zM502.601189 517.301773C503.559766 516.373413 504.512099 515.438625 505.458119 514.497478L504.75284 513.788548C503.809994 514.726538 502.860856 515.65819 501.905495 516.583435L502.601189 517.301773zM508.278152 511.654018C509.212766 510.698891 510.140942 509.737491 511.062612 508.769891L510.338528 508.080179C509.419952 509.044532 508.49489 510.002706 507.563412 510.954628L508.278152 511.654018zM513.820914 505.83466C514.728278 504.855921 515.629049 503.871104 516.523158 502.88028L515.780747 502.210336C514.889639 503.197833 513.991892 504.179345 513.087573 505.154799L513.820914 505.83466zM519.187821 499.887143C520.067997 498.884972 520.94142 497.87691 521.808023 496.863031L521.047864 496.213293C520.184172 497.223767 519.313683 498.228443 518.436463 499.227249L519.187821 499.887143zM524.394836 493.79496C525.249869 492.766869 526.097949 491.733042 526.939013 490.693552L526.161612 490.064547C525.323375 491.100542 524.478145 492.130895 523.625986 493.155531L524.394836 493.79496zM529.421374 487.583219C530.247973 486.533177 531.067469 485.477592 531.879799 484.416538L531.08578 483.808646C530.276182 484.86613 529.459443 485.918164 528.635625 486.964673L529.421374 487.583219zM534.265758 481.256632C535.063098 480.185888 535.853197 479.109799 536.635993 478.028439L535.82596 477.442056C535.0458 478.519773 534.258363 479.592238 533.463707 480.659376L534.265758 481.256632zM538.958374 474.774367C539.726975 473.681928 540.488178 472.584327 541.241923 471.481641L540.416362 470.917326C539.66516 472.016294 538.906524 473.110194 538.140514 474.19895L538.958374 474.774367zM543.478669 468.161498C544.216757 467.049776 544.947316 465.933093 545.670291 464.811526L544.829784 464.269725C544.109251 465.387505 543.381158 466.500417 542.645562 467.608386L543.478669 468.161498zM547.82326 461.42129C548.532305 460.28785 549.233654 459.149624 549.927254 458.006688L549.072359 457.487888C548.381104 458.626959 547.682126 459.761337 546.975479 460.890945L547.82326 461.42129zM551.988763 454.557012C552.666199 453.405701 553.33582 452.249805 553.997575 451.089403L553.128902 450.594016C552.469388 451.750489 551.802035 452.90247 551.126892 454.049884L551.988763 454.557012zM555.958281 447.596387C556.604559 446.426505 557.242888 445.252229 557.873218 444.073635L556.991409 443.60203C556.363216 444.776626 555.727052 445.946921 555.082965 447.112836L555.958281 447.596387zM559.743242 440.519029C560.356577 439.333642 560.961867 438.144068 561.559064 436.950383L560.664743 436.502957C560.069574 437.692588 559.46634 438.878123 558.855087 440.059485L559.743242 440.519029zM563.328091 433.353419C563.908916 432.15183 564.481584 430.946248 565.04605 429.736751L564.139876 429.313845C563.57733 430.519229 563.00661 431.720711 562.427759 432.918215L563.328091 433.353419zM566.723025 426.078299C567.271614 424.859546 567.811917 423.636985 568.343891 422.410691L567.426494 422.012718C566.896331 423.234837 566.357868 424.453236 565.811145 425.66784L566.723025 426.078299zM569.913872 418.722861C570.428825 417.489968 570.935399 416.253463 571.433553 415.013421L570.505628 414.640652C570.009172 415.876467 569.504325 417.108758 568.991127 418.33745L569.913872 418.722861zM572.89939 411.291369C573.380301 410.045381 573.85275 408.795978 574.316697 407.543233L573.378941 407.19594C572.916576 408.444411 572.445739 409.689553 571.966467 410.931291L572.89939 411.291369zM575.687864 403.761332C576.134426 402.50275 576.572444 401.240945 577.001882 399.975991L576.054962 399.654522C575.62699 400.915159 575.190467 402.172656 574.745429 403.426943L575.687864 403.761332zM578.25853 396.189913C578.670799 394.91893 579.074441 393.644911 579.469421 392.367928L578.514077 392.072432C578.120445 393.345055 577.718181 394.614725 577.30732 395.881369L578.25853 396.189913zM580.628538 388.527498C581.005598 387.246561 581.373977 385.962781 581.73364 384.676229L580.770566 384.406995C580.41213 385.689154 580.045009 386.968551 579.669237 388.245115L580.628538 388.527498zM582.787394 380.804793C583.129418 379.513379 583.462694 378.219307 583.787191 376.922646L582.817106 376.679877C582.493717 377.972113 582.161579 379.261769 581.820722 380.548775L582.787394 380.804793zM584.740712 372.997826C585.046981 371.69822 585.344461 370.396143 585.633125 369.091663L584.656745 368.875603C584.369065 370.175636 584.0726 371.473273 583.767375 372.768447L584.740712 372.997826zM586.473677 365.166063C586.744309 363.858518 587.006111 362.548683 587.259057 361.236626L586.277137 361.047326C586.025053 362.354916 585.764142 363.66029 585.494432 364.963382L586.473677 365.166063zM587.987667 357.314172C588.222576 355.999936 588.448625 354.683589 588.66579 353.365197L587.679087 353.202668C587.46266 354.51658 587.237379 355.828451 587.003269 357.138218L587.987667 357.314172zM589.292832 349.389206C589.491769 348.06922 589.681826 346.747299 589.862979 345.423507L588.872212 345.287926C588.691673 346.607231 588.502261 347.924669 588.303999 349.240177L589.292832 349.389206zM590.379031 341.452054C590.5421 340.12685 590.69627 338.799881 590.841518 337.47121L589.847441 337.362539C589.702683 338.686719 589.549035 340.009201 589.386517 341.329923L590.379031 341.452054zM591.250703 333.477827C591.377772 332.14902 591.495939 330.818617 591.605185 329.486679L590.608531 329.404933C590.499653 330.732387 590.381885 332.058307 590.255244 333.382635L591.250703 333.477827zM591.907253 325.470054C591.998344 324.138322 592.080536 322.805157 592.153811 321.470619L591.155315 321.415795C591.082286 322.745859 591.00037 324.074551 590.909584 325.401813L591.907253 325.470054zM592.346914 317.461856C592.402177 316.128381 592.448555 314.793634 592.486032 313.457669L591.486425 313.429629C591.449073 314.761136 591.40285 316.091428 591.347771 317.420448L592.346914 317.461856zM592.571657 309.452736C592.591289 308.120956 592.602158 306.790079 592.604276 305.460159L591.604277 305.458567C591.602166 306.784104 591.591333 308.110598 591.571766 309.437996L592.571657 309.452736zM592.583961 301.436346C592.568274 300.095238 592.543676 298.755199 592.510182 297.416287L591.510495 297.441296C591.543878 298.775771 591.568394 300.111372 591.584029 301.448042L592.583961 301.436346zM592.383307 293.410374C592.331987 292.071655 592.271757 290.734161 592.202636 289.397952L591.203971 289.449612C591.272862 290.781372 591.332891 292.114415 591.384041 293.448682L592.383307 293.410374zM591.969583 285.40817C591.882687 284.073473 591.786903 282.740161 591.682248 281.408292L590.685321 281.486628C590.789626 282.814043 590.88509 284.1429 590.971695 285.473138L591.969583 285.40817zM591.340477 277.403931C591.218038 276.07501 591.08675 274.747633 590.946631 273.421861L589.95217 273.526964C590.091818 274.848286 590.222666 276.171211 590.344694 277.495676L591.340477 277.403931zM590.501037 269.459782C590.342372 268.129302 590.174792 266.800549 589.998321 265.473587L589.007048 265.605415C589.182926 266.92791 589.349941 268.252193 589.508073 269.578197L590.501037 269.459782zM589.441399 261.492337C589.247462 260.171235 589.044689 258.852023 588.833103 257.534765L587.845759 257.693358C588.056631 259.006171 588.25872 260.320934 588.452003 261.63758L589.441399 261.492337zM588.172499 253.592194C587.942394 252.27358 587.703433 250.957043 587.455643 249.64265L586.472953 249.827907C586.719906 251.137856 586.958058 252.449943 587.187385 253.764101L588.172499 253.592194zM586.685776 245.705833C586.421207 244.400033 586.147897 243.096471 585.865873 241.795215L584.888563 242.007029C585.169632 243.30388 585.442017 244.603029 585.70569 245.904408L586.685776 245.705833zM584.992605 237.893772C584.692493 236.594328 584.383664 235.297309 584.066145 234.002785L583.094933 234.241002C583.411376 235.531138 583.719159 236.823762 584.018254 238.118802L584.992605 237.893772zM583.081552 230.103674C582.746192 228.81275 582.402163 227.524438 582.049493 226.23881L581.08512 226.503354C581.436593 227.784622 581.779456 229.068564 582.113678 230.35511L583.081552 230.103674zM580.959143 222.367717C580.589055 221.087319 580.210366 219.809718 579.823109 218.534985L578.866287 218.825663C579.252231 220.096071 579.629635 221.369338 579.998468 222.645392L580.959143 222.367717zM578.626244 214.689913C578.219775 213.414839 577.804699 212.142777 577.381052 210.873801L576.432515 211.19047C576.854725 212.45514 577.268393 213.722887 577.673484 214.993635L578.626244 214.689913zM576.08378 207.074341C575.643834 205.813956 575.195398 204.556762 574.738509 203.302834L573.798936 203.645182C574.254275 204.894858 574.70119 206.147788 575.139644 207.403898L576.08378 207.074341zM573.342764 199.551565C572.867748 198.300924 572.384287 197.053683 571.89242 195.809916L570.962497 196.177669C571.452697 197.41722 571.934519 198.660233 572.407924 199.906634L573.342764 199.551565zM570.39558 192.0987C569.886245 190.860146 569.368536 189.625196 568.842494 188.393925L567.922905 188.786806C568.447165 190.013905 568.96312 191.244672 569.470729 192.47903L570.39558 192.0987zM567.243302 184.719997C566.700537 183.495831 566.149496 182.275466 565.590222 181.058978L564.681644 181.476692C565.239025 182.689062 565.7882 183.905297 566.329127 185.125319L567.243302 184.719997zM563.899128 177.445122C563.324023 176.237429 562.740763 175.033725 562.149393 173.834087L561.252453 174.276241C561.841823 175.471821 562.423111 176.671455 562.996271 177.875064L563.899128 177.445122zM560.366228 170.277324C559.759989 169.088125 559.145739 167.903095 558.523524 166.722311L557.638837 167.188498C558.25895 168.365292 558.871126 169.546318 559.475316 170.731499L560.366228 170.277324zM556.634399 163.195284C555.995292 162.021184 555.348265 160.851463 554.693369 159.686198L553.821613 160.176138C554.474299 161.33747 555.119142 162.503243 555.756092 163.67338L556.634399 163.195284zM552.704901 156.203467C552.0342 155.046996 551.355701 153.895101 550.669457 152.747861L549.811272 153.261201C550.495202 154.404573 551.171413 155.552584 551.839852 156.705156L552.704901 156.203467zM548.57905 149.306411C547.878187 148.170024 547.169676 147.038399 546.453571 145.911611L545.60959 146.447985C546.323283 147.570977 547.029408 148.698791 547.72791 149.83135L548.57905 149.306411zM544.288744 142.555338C543.5562 141.436215 542.816114 140.322067 542.068543 139.21297L541.239324 139.771892C541.984379 140.877258 542.721974 141.987656 543.452053 143.103012L544.288744 142.555338zM539.807344 135.90654C539.044756 134.807416 538.274765 133.713461 537.497431 132.624752L536.683586 133.205834C537.458307 134.290882 538.225708 135.381159 538.985732 136.476587L539.807344 135.90654zM535.136297 129.3647C534.345476 128.288208 533.54742 127.217063 532.742191 126.15134L531.94433 126.754181C532.746853 127.816322 533.542226 128.883868 534.33039 129.956742L535.136297 129.3647zM530.311205 122.978447C529.490912 121.922572 528.663521 120.872244 527.829095 119.827539L527.047738 120.451623C527.879362 121.49282 528.703973 122.539619 529.521511 123.591948L530.311205 122.978447zM525.301853 116.706808C524.454189 115.674393 523.599596 114.647703 522.738139 113.626812L521.973877 114.271718C522.832442 115.289181 523.684165 116.312424 524.528983 117.341372L525.301853 116.706808zM520.128002 110.575574C519.252008 109.565404 518.369232 108.561156 517.479741 107.562903L516.733132 108.228167C517.619637 109.223069 518.49945 110.223946 519.372504 111.230724L520.128002 110.575574zM514.792954 104.588131C513.891087 103.603003 512.982618 102.623966 512.067614 101.651092L511.339174 102.336201C512.251106 103.305809 513.156525 104.28156 514.055365 105.263381L514.792954 104.588131zM509.300009 98.7478626C508.371694 97.7870931 507.436943 96.8325977 506.495824 95.8844467L505.78609 96.5889168C506.724049 97.5338842 507.655662 98.4851749 508.58086 99.4427187L509.300009 98.7478626zM503.632662 93.0387311C502.677611 92.1022818 501.716281 91.1722983 500.748743 90.2488498L500.058311 90.9722466C501.022599 91.8925933 501.9807 92.8194532 502.932543 93.7527573L503.632662 93.0387311zM497.833308 87.5035042C496.854609 86.5942473 495.869822 85.6916123 494.87902 84.7956664L494.20831 85.5373863C495.195783 86.430321 496.17726 87.3299227 497.15267 88.2361242L497.833308 87.5035042zM491.885971 82.1256179C490.883837 81.2436925 489.875804 80.3685475 488.861942 79.5002483L488.211464 80.2597732C489.221915 81.1251519 490.226559 81.9973539 491.225323 82.8763137L491.885971 82.1256179zM485.793951 76.9084572C484.768942 76.0543463 483.73822 75.207172 482.70186 74.3669978L482.072111 75.1437969C483.104983 75.9811427 484.132235 76.8254655 485.153795 77.6767018L485.793951 76.9084572zM479.582357 71.8726052C478.532349 71.0445215 477.476786 70.223565 476.415744 69.409798L475.807171 70.2032955C476.864637 71.0143202 477.916643 71.8325105 478.963114 72.6578044L479.582357 71.8726052zM473.278178 67.0363159C472.207377 66.2373948 471.131218 65.4457404 470.049774 64.6614131L469.462669 65.4709235C470.540464 66.2526047 471.612993 67.0415886 472.680183 67.8378151L473.278178 67.0363159zM466.796491 62.3352805C465.70398 61.5652149 464.606293 60.8025722 463.503508 60.0474105L462.938506 60.8725001C464.037566 61.6251107 465.131545 62.3851776 466.220367 63.1526426L466.796491 62.3352805zM460.184175 57.8072516C459.072365 57.067813 457.95558 56.3359253 456.833897 55.6116445L456.291446 56.4517315C457.409334 57.1735622 458.522342 57.9029745 459.630392 58.6399127L460.184175 57.8072516zM453.444498 53.4555809C452.313636 52.7469708 451.177997 52.0460412 450.037656 51.3528458L449.518215 52.2073521C450.654693 52.8981992 451.786485 53.5967547 452.913518 54.3029652L453.444498 53.4555809zM446.604769 49.2977911C445.453186 48.6189759 444.297003 47.9479985 443.136296 47.284911L442.640255 48.1532101C443.797024 48.8140481 444.949286 49.4827496 446.096963 50.1592628L446.604769 49.2977911zM439.620584 45.3082507C438.453051 44.6623013 437.281129 44.0242866 436.104893 43.3942561L435.632728 44.2757659C436.804967 44.903656 437.972909 45.5395035 439.136476 46.1832592L439.620584 45.3082507zM432.568544 41.5308731C431.382807 40.9163381 430.192866 40.3098707 428.998797 39.7115184L428.550794 40.6055506C429.740801 41.2018672 430.926694 41.8062717 432.108398 42.4187168L432.568544 41.5308731zM425.403761 37.9406015C424.201777 37.3586576 422.995784 36.7848923 421.785857 36.2193508L421.362413 37.125273C422.568218 37.688888 423.770104 38.2606991 424.967995 38.8406613L425.403761 37.9406015zM418.129439 34.5407191C416.912405 33.9920604 415.691559 33.4516796 414.466976 32.9196194L414.068481 33.83679C415.288888 34.3670356 416.505571 34.9055739 417.718455 35.452362L418.129439 34.5407191zM410.774765 31.345379C409.543415 30.8303063 408.308447 30.3236055 407.069937 29.8253172L406.696685 30.7530471C407.930967 31.2496343 409.161719 31.7546056 410.388867 32.2679204L410.774765 31.345379zM403.344005 28.355789C402.097453 27.8739668 400.847467 27.4006276 399.594123 26.9358098L399.246403 27.8734084C400.495466 28.3366382 401.741181 28.8083605 402.983476 29.2885369L403.344005 28.355789zM395.814672 25.5636147C394.555453 25.1162002 393.292993 24.6773497 392.027367 24.2470995L391.705506 25.1938865C392.966807 25.6226662 394.224951 26.0600168 395.479867 26.5059021L395.814672 25.5636147zM388.216916 22.9808408C386.947236 22.5685653 385.674513 22.1649095 384.398819 21.7699076L384.103037 22.725163C385.374369 23.1188145 386.642741 23.5210903 387.908081 23.9319564L388.216916 22.9808408zM380.554829 20.6085201C379.273487 20.2309656 377.989288 19.8621078 376.702302 19.5019787L376.43283 20.4649868C377.715417 20.8238849 378.995226 21.1914819 380.272187 21.5677458L380.554829 20.6085201zM372.832436 18.4476455C371.541936 18.1055363 370.248769 17.7721715 368.953003 17.447581L368.71001 18.417609C370.00135 18.7410907 371.290099 19.0733166 372.576189 19.4142568L372.832436 18.4476455zM365.053695 16.4991508C363.754232 16.1924968 362.452284 15.8946369 361.147921 15.6055991L360.931576 16.581916C362.231488 16.8699675 363.528991 17.1668107 364.824019 17.4724179L365.053695 16.4991508zM357.222497 14.7639111C355.914756 14.4928571 354.604712 14.2306424 353.292431 13.9772931L353.102871 14.9591622C354.41068 15.2116483 355.716259 15.4729692 357.019541 15.7430991L357.222497 14.7639111zM349.342664 13.242743C348.028603 13.0076497 346.71242 12.7814191 345.394179 12.5640753L345.231501 13.5507546C346.545259 13.7673592 347.856965 13.9928202 349.166554 14.2271135L349.342664 13.242743zM341.446692 11.9407423C340.126387 11.741434 338.804133 11.5510155 337.479993 11.3695094L337.344189 12.360245C338.663836 12.5411355 339.981604 12.7309077 341.297427 12.9295395L341.446692 11.9407423zM333.481046 10.84917C332.155894 10.6859388 330.828966 10.5316103 329.500323 10.3862051L329.391533 11.38027C330.715684 11.5251834 332.038124 11.6789899 333.358791 11.8416687L333.481046 10.84917zM325.507051 9.97656389C324.178474 9.84936494 322.848289 9.73106737 321.516556 9.62169005L321.4347 10.6183342C322.761947 10.7273431 324.087649 10.845242 325.411746 10.972012L325.507051 9.97656389zM317.528942 9.32117193C316.197339 9.22981614 314.864293 9.14735969 313.52986 9.07381989L313.474834 10.0723048C314.804792 10.145598 316.133365 10.2277778 317.460497 10.3188268L317.528942 9.32117193zM277 599.840605C122.500121 589.60353.5 461.448423.5 305 .5 146.72999 123.96109 17.7615804 280 8.9771986 280 10.3912619 277 592.178903 277 599.840605zM280 9.97886041C124.514157 18.7622833 1.5 147.282685 1.5 305 1.5 460.902172 123.043021 588.613988 277 598.839671 277 591.776175 280 11.0498628 280 9.97886041z"/>
    <circle cx="296.5" cy="9.5" r="4.5" fill="#FFCF00"/>
    <path fill="#FFCF00" d="M297.299805,16 L297.299805,19 L295.799805,19 L295.799805,16 M295.799805,3 L295.799805,0 L297.299805,0 L297.299805,3"/>
    <path fill="#FFCF00" d="M297.299805,16 L297.299805,19 L295.799805,19 L295.799805,16 M295.799805,3 L295.799805,0 L297.299805,0 L297.299805,3" transform="rotate(45 296.55 9.5)"/>
    <path fill="#FFCF00" d="M297.299805,16 L297.299805,19 L295.799805,19 L295.799805,16 M295.799805,3 L295.799805,0 L297.299805,0 L297.299805,3" transform="rotate(135 296.55 9.5)"/>
    <path fill="#FFCF00" d="M297.25,16 L297.25,19 L295.75,19 L295.75,16 M295.75,3 L295.75,0 L297.25,0 L297.25,3" transform="rotate(90 296.5 9.5)"/>
  </g>
</svg>
